<svg width="90" height="100" viewBox="0 0 90 100" fill="none" xmlns="http://www.w3.org/2000/svg">
<path d="M13.16 30.464H16.4V53H13.16V30.464ZM26.0106 49.472V46.556C26.0106 46.124 25.9386 45.848 25.7946 45.728C25.6506 45.584 25.3626 45.512 24.9306 45.512H23.0946C20.8626 45.512 19.7466 44.456 19.7466 42.344V38.636C19.7466 36.5 20.8626 35.432 23.0946 35.432H25.7226C27.9786 35.432 29.1066 36.5 29.1066 38.636V40.328H25.9386V38.96C25.9386 38.528 25.8666 38.252 25.7226 38.132C25.5786 37.988 25.2906 37.916 24.8586 37.916H23.9946C23.5626 37.916 23.2746 37.988 23.1306 38.132C22.9866 38.252 22.9146 38.528 22.9146 38.96V41.984C22.9146 42.416 22.9866 42.704 23.1306 42.848C23.2746 42.968 23.5626 43.028 23.9946 43.028H25.8666C28.0746 43.028 29.1786 44.096 29.1786 46.232V49.832C29.1786 51.944 28.0626 53 25.8306 53H23.1666C20.9346 53 19.8186 51.944 19.8186 49.832V48.104H22.9866V49.472C22.9866 49.904 23.0586 50.192 23.2026 50.336C23.3466 50.456 23.6346 50.516 24.0666 50.516H24.9306C25.3626 50.516 25.6506 50.456 25.7946 50.336C25.9386 50.192 26.0106 49.904 26.0106 49.472ZM46.5542 30.464V33.092H42.7742V53H39.5342V33.092H35.7542V30.464H46.5542ZM53.7748 35.432H55.0348C57.2188 35.432 58.3108 36.5 58.3108 38.636V53H55.0708V39.104C55.0708 38.672 54.9988 38.396 54.8548 38.276C54.7108 38.132 54.4228 38.06 53.9908 38.06H52.7308C52.2988 38.06 51.9868 38.156 51.7948 38.348C51.6268 38.54 51.5428 38.864 51.5428 39.32V53H48.3028V28.916H51.5428V36.836C51.8548 35.9 52.5988 35.432 53.7748 35.432ZM61.3792 32.084V28.88H64.7632V32.084H61.3792ZM64.6912 53H61.4512V35.432H64.6912V53ZM73.7176 49.472V46.556C73.7176 46.124 73.6456 45.848 73.5016 45.728C73.3576 45.584 73.0696 45.512 72.6376 45.512H70.8016C68.5696 45.512 67.4536 44.456 67.4536 42.344V38.636C67.4536 36.5 68.5696 35.432 70.8016 35.432H73.4296C75.6856 35.432 76.8136 36.5 76.8136 38.636V40.328H73.6456V38.96C73.6456 38.528 73.5736 38.252 73.4296 38.132C73.2856 37.988 72.9976 37.916 72.5656 37.916H71.7016C71.2696 37.916 70.9816 37.988 70.8376 38.132C70.6936 38.252 70.6216 38.528 70.6216 38.96V41.984C70.6216 42.416 70.6936 42.704 70.8376 42.848C70.9816 42.968 71.2696 43.028 71.7016 43.028H73.5736C75.7816 43.028 76.8856 44.096 76.8856 46.232V49.832C76.8856 51.944 75.7696 53 73.5376 53H70.8736C68.6416 53 67.5256 51.944 67.5256 49.832V48.104H70.6936V49.472C70.6936 49.904 70.7656 50.192 70.9096 50.336C71.0536 50.456 71.3416 50.516 71.7736 50.516H72.6376C73.0696 50.516 73.3576 50.456 73.5016 50.336C73.6456 50.192 73.7176 49.904 73.7176 49.472Z" fill="white"/>
<path d="M38.768 76L38.168 72.52H35L34.448 76H32.288L34.952 60.976H38.096L40.952 76H38.768ZM35.264 70.768H37.88L36.512 62.848L35.264 70.768ZM42.0024 76V73.048H44.4264V76H42.0024ZM46.6353 60.976H48.7953V76H46.6353V60.976ZM52.9464 60.976H55.2504C56.7384 60.976 57.4824 61.672 57.4824 63.064V67.432C57.4824 68.824 56.7384 69.52 55.2504 69.52H54.9384L54.8424 71.104H53.0184L52.8264 67.96H54.6264C54.8984 67.96 55.0744 67.912 55.1544 67.816C55.2504 67.704 55.2984 67.512 55.2984 67.24V63.376C55.2984 63.104 55.2504 62.92 55.1544 62.824C55.0744 62.712 54.8984 62.656 54.6264 62.656H53.5704C53.2984 62.656 53.1144 62.712 53.0184 62.824C52.9384 62.92 52.8984 63.104 52.8984 63.376V65.104H50.7144V63.064C50.7144 61.672 51.4584 60.976 52.9464 60.976ZM52.7064 76V73.048H55.1304V76H52.7064Z" fill="white"/>
<path d="M45 98.8869L1 77.3758V23.6119L45 1.12305L89 23.6119V77.3758L45 98.8869Z" stroke="#FF780A" stroke-width="2"/>
</svg>
